<svg fill="#ed693a" xmlns="http://www.w3.org/2000/svg" xmlns:xlink="http://www.w3.org/1999/xlink" viewBox="-396.5 235.5 36 67">
<path d="M-361.5,259.4c-4,13.1-17,28.1-17,28.1s-13-16-17-28.1c-0.6-1.8-1-3.8-1-5.9c0-9.9,8.1-18,18-18s18,8.1,18,18
	C-360.5,255.6-360.9,257.5-361.5,259.4z M-378.5,246.5c-3.9,0-7,3.1-7,7s3.1,7,7,7c3.9,0,7-3.1,7-7S-374.6,246.5-378.5,246.5z
	 M-378.5,290.5c8.3,0,15,3,15,6c0,3-6.7,6-15,6s-15-3-15-6C-393.5,293.5-386.8,290.5-378.5,290.5z M-378.5,300.5c7.3,0,13-2,13-4
	c0-2-5.7-4-13-4s-13,2-13,4C-391.5,298.5-385.8,300.5-378.5,300.5z"/>
</svg>